<svg width="230" height="240" viewBox="0 0 230 240" fill="none" xmlns="http://www.w3.org/2000/svg">
<path d="M125.667 0.666711C115 1.06671 105.133 2.00004 103.667 2.80004C102.2 3.60004 97.6667 4.66671 93.6667 5.20004C82.6 6.53338 63 16.6667 51.5333 26.8C45 32.6667 40.8667 35.3334 38.4667 35.3334C33 35.3334 29.6667 39.7334 29.6667 46.8C29.6667 50.9334 28.7333 54.2667 26.4667 57.6C24.6 60.2667 22.3333 65.3334 21.5333 68.9334C20.6 72.4 19.4 75.3334 18.7333 75.3334C18.2 75.3334 16.8667 77.0667 15.8 79.2C14.0667 82.2667 13.8 87.6 14.2 106.8C14.8667 132.933 15.2667 135.867 19.6667 144.667C21.4 148 23.5333 153.467 24.3333 157.067C25.4 160.8 28.0667 165.733 31 169.067C35.5333 174.133 39 179.467 39 181.2C39 181.467 35.5333 182.533 31.4 183.333C17.6667 186.267 10.0667 189.733 5.00001 195.6C1.00001 200.4 0.333344 202.133 0.333344 207.867C0.333344 227.733 22.0667 236.8 74.6 239.067C117.267 240.8 177.667 237.467 198.333 232.267C207.267 229.867 208.6 226.4 204.067 217.2C199.267 207.6 196.867 206.8 184.467 211.333C178.867 213.333 168.067 216.4 160.333 218C127.4 225.067 41 222 23.9333 213.067C21 211.6 20.2 210.4 20.6 207.6C21.1333 202.8 26.8667 199.733 39 197.867C53.1333 195.733 57.2667 196.533 64.0667 203.333C69.2667 208.667 70.0667 208.933 75 208.133C79.2667 207.467 81.9333 208 87.5333 210.667C96.3333 214.8 115.4 216.267 137.267 214.267C149.4 213.2 153.533 212.267 158.467 209.467C161.933 207.6 166.333 206 168.333 206C172.467 206 179.8 200.933 187.667 192.8C191.4 188.933 193.933 187.333 196.733 187.333C202.067 187.333 208.333 180.8 208.333 175.333C208.333 172.933 209.4 169.467 210.867 167.6C212.2 165.6 214.067 161.6 215 158.667C215.933 155.733 217.8 151.733 219.133 149.867C220.6 147.867 222.333 143.067 223.267 139.2C224.067 135.2 225.933 130.267 227.4 128.267C229.4 125.333 229.8 123.333 229 118.267C228.467 114.8 228.2 106.133 228.333 99.0667C228.467 84.2667 227 76.9334 221.933 69.3334C218.467 64 213.4 53.8667 209.133 44.2667C207.933 41.3334 204.6 37.6 201 35.0667C197.667 32.6667 195 30.1334 195 29.2C195 25.6 188.2 19.6 183.133 18.6667C179.4 18.1334 177.533 16.9334 176.467 14.5334C174.867 10.9334 167.8 7.33338 162.6 7.33338C160.867 7.33338 158.067 5.86671 156.467 4.13338C152.733 0.133378 149.8 -0.133289 125.667 0.666711ZM149.4 6.13338C151.667 6.93338 153.933 8.66671 154.333 9.86671C154.867 11.8667 131 85.3334 129.4 86.5334C128.2 87.4667 117.667 85.4667 117.667 84.4C117.667 80.2667 141 7.73338 142.733 6.26671C145.267 4.40004 144.467 4.40004 149.4 6.13338ZM99 21.6C89.1333 31.7334 81.8 40.2667 78.8667 45.6L74.2 53.8667L69.9333 51.0667C67.5333 49.6 65.6667 48 65.6667 47.4667C65.6667 43.2 91.5333 16.9334 102.6 10C106.067 7.73338 110.2 6.00004 111.8 6.00004C114.067 6.00004 111.267 9.46671 99 21.6ZM135 7.33338C135 8.00004 134.467 8.66671 133.667 8.66671C131.8 8.66671 125 16.5334 120.2 24C117.933 27.6 111.4 34.9334 105.8 40.5334C100.067 46.1334 93.2667 53.3334 90.7333 56.5334C86.4667 61.8667 85.9333 62.1334 83.2667 60.5334C81.6667 59.4667 80.3333 57.4667 80.3333 55.8667C80.3333 48.8 101.533 24.1334 118.2 11.7334C123.8 7.60004 127.267 6.00004 130.467 6.00004C133 6.00004 135 6.53338 135 7.33338ZM79.9333 21.8667C73.8 27.7334 67.1333 35.0667 65 38.2667C62.8667 41.4667 60.8667 44.2667 60.7333 44.5334C59.4 46.2667 56.2 40.6667 57 38.1334C58.3333 33.6 75.1333 17.4667 81.6667 14.2667C91.9333 9.20004 91.5333 10.9334 79.9333 21.8667ZM170.333 16C172.2 17.7334 173.667 20 173.667 20.9334C173.667 23.4667 161.4 59.6 154.867 76.1334L149.4 90.2667L143.4 89.4667C140.067 89.0667 136.867 88.4 136.333 88C135.133 87.3334 158.333 17.4667 160.733 14.2667C162.733 11.7334 166.867 12.4 170.333 16ZM121.933 50.5334C117 66.6667 112.333 80 111.667 80.2667C110.867 80.5334 108.2 78.9334 105.667 76.8L101.133 73.0667L111.267 52.5334C122.067 30.9334 129.8 17.7334 130.467 20C130.733 20.6667 126.867 34.5334 121.933 50.5334ZM184.733 24.5334C190.067 26.5334 191.533 32.4 190.6 48.1334C189.4 66.5334 187.267 79.7334 184.067 88.2667C181.933 94.2667 181 95.3334 178.067 95.3334C175.667 95.3334 174.867 94.8 175.533 93.3334C175.933 92.2667 177 83.7334 177.8 74.2667C179 61.2 179.133 54 177.933 43.6C176.867 34.6667 176.733 28.9334 177.667 26.6667C179 23.0667 179.933 22.8 184.733 24.5334ZM51.2667 36.9334C50.3333 37.8667 49.6667 38 49.6667 37.2C49.6667 35.3334 51.2667 33.7334 52.2 34.6667C52.4667 35.0667 52.0667 36.1334 51.2667 36.9334ZM202.2 43.4667C204.067 45.7334 206.067 48.9334 206.467 50.6667C208.067 56.9334 200.2 89.8667 195.533 96.4C194.067 98.6667 192.733 99.2 190.6 98.5334C186.467 97.3334 186.467 97.6 189.4 89.7334C192.333 82 194.467 69.2 195.8 50.9334C196.2 44.5334 197.133 39.3334 197.667 39.3334C198.333 39.3334 200.333 41.2 202.2 43.4667ZM63.6667 53.4667C109.133 84.8 147.933 116.533 184.733 152.533C199.4 166.933 203 171.2 203 174.133C203 176.133 202.067 178.8 200.867 179.867C196.467 184.267 193.133 182.533 182.067 169.6C149.533 132.267 98.6 89.7334 52.7333 61.7334C35.9333 51.4667 35 50.6667 35 46.6667C35 41.4667 35.6667 40.6667 41 40.6667C44.0667 40.6667 49.9333 44 63.6667 53.4667ZM173.533 56.2667C173.667 62.2667 172.867 63.0667 169.267 60.2667C167.133 58.8 167.133 58.2667 169.133 52C171 46.6667 171.667 45.8667 172.467 48C173 49.4667 173.533 53.2 173.533 56.2667ZM102.067 58.8C99.4 64.5334 97 69.6 96.7333 69.8667C96.6 70.1334 95.1333 69.3334 93.6667 68C91 65.6 91 65.6 94.6 60.8C99 54.8 106.067 47.2 106.6 47.8667C106.867 48.1334 104.867 53.0667 102.067 58.8ZM37.2667 60.9334C35 70.5334 32.6 74.6667 29 75.0667C25.5333 75.4667 25.4 75.3334 26.3333 71.0667C27.8 64.4 32.2 58 35.2667 58C37.4 58 37.8 58.6667 37.2667 60.9334ZM47 65.2C47 66.2667 46.4667 67.6 45.6667 68C45 68.4 44.3333 70.2667 44.3333 72.1334C44.3333 75.6 41 77.8667 39 75.8667C37.2667 74.1334 42.4667 63.3334 45 63.3334C46.0667 63.3334 47 64.1334 47 65.2ZM169.4 67.3334C171.667 69.4667 172.333 71.6 172.333 76.4C172.333 85.2 171.4 86 164.733 83.0667L159.133 80.6667L161.933 72.6667C163.533 68.2667 165.267 64.6667 165.667 64.6667C166.067 64.6667 167.8 65.8667 169.4 67.3334ZM56.3333 70C58.6 71.2 58.7333 71.8667 57.4 74.6667C56.4667 76.8 54.7333 78 53 78C48.8667 78 48.3333 76.9334 49.9333 72.5334C51.4 68.4 52.4667 67.8667 56.3333 70ZM213 86.9334C213 94.5334 212.333 101.067 211.667 101.867C210.733 102.8 208.733 102.8 205.267 101.867C202.6 101.2 200.333 100.267 200.333 100C200.333 99.7334 201.533 96.9334 202.867 93.6C204.2 90.4 206.467 83.4667 207.8 78.1334C209.667 70 210.333 68.8 211.533 70.9334C212.333 72.2667 213 79.4667 213 86.9334ZM67 77.3334C68.3333 79.0667 68.2 79.3334 65.9333 79.3334C63 79.3334 61.1333 77.6 62.6 76.1334C63.9333 74.8 65.2667 75.2 67 77.3334ZM221.8 80.9334C223.267 86.6667 223 103.733 221.4 105.467C220.867 105.867 219.533 106 218.467 105.6C216.867 104.933 216.733 103.867 217.933 99.8667C218.6 97.0667 219 90.4 218.733 85.0667C218.2 74.1334 219.4 72.5334 221.8 80.9334ZM49.6667 82.6667C61.8 83.8667 73.5333 85.0667 75.9333 85.4667C79.8 86 97.2667 97.4667 96.0667 98.6667C95.8 98.9334 91.1333 98.5334 85.6667 97.8667C80.2 97.2 63.5333 95.4667 48.6 94C33.6667 92.5334 21 91.0667 20.2 90.6667C18.8667 89.7334 18.6 85.8667 19.8 82.8C20.8667 80.1334 22.4667 80.1334 49.6667 82.6667ZM166.067 89.6C171 92.1334 170.733 94.5334 165.533 93.4667C163.267 93.0667 160.6 92.6667 159.8 92.6667C156.867 92.6667 154.867 90.4 155.8 88.1334C156.733 85.7334 159.267 86.1334 166.067 89.6ZM161 98.1334C189 103.2 215.267 109.733 220.333 112.8C223.533 114.8 224.333 116.267 224.333 119.867C224.333 127.867 223.133 127.867 195.533 120.133C181.667 116.133 164.333 111.6 157 110C143.667 106.933 140.733 105.467 131 96.6667L126.333 92.5334L133 93.3334C136.733 93.7334 149.267 95.8667 161 98.1334ZM25.6667 97.6C25.5333 98.2667 24.0667 101.333 22.3333 104.667C19.1333 110.667 18.3333 110.133 19 102C19.4 97.4667 20.0667 96.6667 23.1333 96.6667C24.4667 96.6667 25.6667 97.0667 25.6667 97.6ZM34.7333 98.9334C27.2667 114 25.5333 118.533 24.2 127.067C22.8667 135.333 22.3333 136.533 21.4 134C20.0667 130.533 22.0667 119.333 25.2667 111.6C28.0667 104.667 32.3333 98 33.9333 98C34.6 98 35 98.4 34.7333 98.9334ZM45.6667 99.8667C45.6667 100.133 44.0667 103.867 42.2 108.133C37.2667 119.467 33.6667 136.8 33.6667 150.667C33.6667 162 33.5333 162.4 31.4 160.267C28.0667 156.933 28.0667 128.4 31.4 118.533C34.4667 109.733 41 99.3334 43.6667 99.3334C44.7333 99.3334 45.6667 99.6 45.6667 99.8667ZM57.2667 100.133L60.2 100.933L57.8 105.867C51.5333 118 50.3333 125.467 50.4667 150C50.6 162.8 51.2667 176.267 52.0667 180C52.8667 183.6 53.1333 186.933 52.7333 187.333C51.1333 188.933 43 177.6 41.1333 171.2C36.3333 155.067 40.0667 123.6 48.8667 106.267C52.6 98.9334 52.6 98.9334 57.2667 100.133ZM81.1333 103.867C81.5333 104.8 81 107.6 80.0667 109.867L78.3333 114.133L73.2667 108.133L68.2 102H74.3333C78.2 102 80.6 102.667 81.1333 103.867ZM99.4 106C100.467 106.933 93.5333 124 83 146.667C79.9333 153.2 75.9333 162 74.0667 166C72.2 170 70.4667 172.667 70.0667 171.733C69.4 169.733 76.3333 140.667 81.9333 122.667C88.2 102.133 87.4 103.333 93.2667 104.267C96.0667 104.667 98.8667 105.467 99.4 106ZM73.9333 117.733C77 122.667 76.3333 127.467 73 124.667C68.3333 120.8 61.6667 110.267 62.4667 108C63.2667 106.133 63.9333 106.4 67.2667 109.6C69.4 111.6 72.4667 115.333 73.9333 117.733ZM113.267 111.067L117.4 114.667L104.333 143.6C84.3333 187.733 77.5333 201.733 75.2667 202.667C73.1333 203.467 67.2667 200.133 66.2 197.467C65.9333 196.667 70.8667 184.8 77.4 171.333C83.9333 157.733 93 137.867 97.8 127.067C102.467 116.133 107 107.333 107.667 107.333C108.467 107.467 110.867 109.067 113.267 111.067ZM164.6 117.733C165.133 118.267 164.733 119.733 163.667 121.067C162.067 123.333 161.667 123.333 157.4 119.333L153 115.2L158.333 116C161.267 116.533 164.067 117.333 164.6 117.733ZM70.8667 141.6C69.5333 146.667 68.3333 150.933 68.3333 151.2C68.3333 152.933 61.1333 144.667 58.4667 139.867C55.6667 134.933 55.4 133.333 56.4667 127.733C58.4667 116.933 58.4667 116.933 66.3333 125.067L73.5333 132.667L70.8667 141.6ZM127.533 123.2L131.267 127.067L128.2 132.8C117.533 153.867 96.0667 189.467 87.2667 200.533C82.4667 206.4 83.2667 201.333 88.8667 190C91.9333 183.733 99.4 167.6 105.533 154C119.267 123.6 121.4 119.333 122.733 119.333C123.4 119.333 125.533 121.067 127.533 123.2ZM178.733 120.667C181.4 120.667 180.467 123.733 176.467 128.667C172.6 133.2 172.467 133.2 169.8 130.8C166.467 127.733 166.333 126.933 169.267 122.533C170.867 120.133 172.2 119.333 174.2 119.867C175.8 120.267 177.8 120.667 178.733 120.667ZM194.733 125.333C198.6 126.533 201.667 127.733 201.667 128.133C201.667 129.2 189.8 144.4 188.2 145.467C187.4 145.867 184.467 144 181.667 141.333L176.6 136.267L179.267 133.467C180.733 132 182.867 129.067 184.067 126.933C186.6 122.667 186.067 122.8 194.733 125.333ZM214.733 132.267C215.267 134.267 199.8 150.933 196.2 152C191.533 153.467 190.867 151.333 194.467 146.933C196.333 144.533 200.067 139.733 202.6 136.267C206.467 131.067 208.067 130 210.733 130.267C212.6 130.533 214.333 131.467 214.733 132.267ZM141.4 135.733L145.667 140.133L143 142.667C140.333 145.2 140.2 145.067 136.2 141.067C132.6 137.6 132.333 136.667 133.533 134.133C135.533 130.4 136.333 130.533 141.4 135.733ZM214.333 146.933C212.067 150.8 200.333 159.867 199.267 158.667C198.467 158 215.4 142 216.067 142.667C216.333 142.933 215.533 144.8 214.333 146.933ZM132.467 145.467C133.933 147.333 133.8 148 131.133 150.133C128.067 152.667 123.667 153.6 124.6 151.6C129.133 142.267 129.533 142 132.467 145.467ZM154.467 148.133L158.2 151.733L154.2 154.933C141.267 165.6 111.667 182.933 108.6 181.867C107.8 181.6 109.933 176.933 113.133 171.467C118.467 162.267 119.533 161.2 126.333 158.533C130.467 156.8 137.267 153.067 141.4 150.133C145.533 147.2 149.4 144.8 149.8 144.8C150.2 144.667 152.333 146.267 154.467 148.133ZM61.8 153.067L66.7333 158.667L64.8667 168.667C63.8 174.133 63 180.4 63.1333 182.667C63.5333 187.733 61.8 193.333 60.3333 191.867C57.4 188.933 53.4 147.2 56.0667 147.467C56.6 147.467 59.1333 150.133 61.8 153.067ZM164.867 159.2C167.133 161.6 166.733 162 153 171.2C137.4 181.6 121.8 189.6 107.933 194C91.2667 199.333 95.6667 192.667 113.267 186C124.6 181.733 142.467 171.067 153.933 162C157.667 159.067 161.133 156.667 161.667 156.667C162.2 156.667 163.667 157.867 164.867 159.2ZM207.533 162.667C206.6 164.8 204.333 165.467 204.333 163.467C204.333 162.4 205.267 161.733 207.933 160.8C208.067 160.667 207.933 161.6 207.533 162.667ZM172.867 167.067C174.333 169.467 147.533 190.133 132.333 198.4C121.4 204.267 113.267 207.067 104.067 207.867C88.2 209.2 86.0667 204.667 101.133 201.333C118.867 197.333 138.733 188 159.667 173.467C170.867 165.733 171.667 165.333 172.867 167.067ZM171 180.267C161.667 192.267 134.2 210.133 125.4 210C123.267 210 125.4 208.267 131.667 204.933C142.067 199.467 153 192.133 164.867 182.8C169.267 179.467 173 176.667 173.267 176.667C173.667 176.667 172.6 178.267 171 180.267ZM180.467 181.867C176.867 186.8 161 201.6 155.8 204.8C153.533 206.133 150.467 207.333 149 207.333C147.133 207.333 148.467 206 153 203.067C156.733 200.8 164.467 194 170.333 188.133C180.733 177.467 185.667 174.4 180.467 181.867ZM184.067 188.533C182.333 190.667 179.933 193.067 178.467 194C177.133 194.8 178.067 193.2 180.467 190.133C183 187.2 185.533 184.667 186.067 184.667C186.733 184.667 185.8 186.4 184.067 188.533ZM45.6667 189.2C46.8667 190.8 46.3333 191.333 42.4667 191.867C39.8 192.267 35.4 193.067 32.7333 193.467C26.2 194.4 18.0667 198.667 16.3333 201.867C14.6 205.2 14.6 210.8 16.3333 213.867C20.8667 222.533 66.2 228.267 118.333 226.933C149.667 226.133 163.933 224 184.2 217.2C189.667 215.333 194.867 214.133 195.8 214.533C197.667 215.2 202.067 224.667 201.133 225.733C200.733 226 196.733 227.067 192.067 228C168.6 232.933 111 235.867 76.3333 234C49.1333 232.4 40.2 231.2 26.3333 227.2C11.9333 222.933 5.40001 216.933 5.40001 207.867C5.40001 199.333 13.8 192.533 28.6 189.333C39.6667 186.933 43.6667 186.933 45.6667 189.2Z" fill="black"/>
</svg>
